<?xml version="1.0" standalone="no"?>
<!DOCTYPE svg PUBLIC "-//W3C//DTD SVG 20010904//EN"
 "http://www.w3.org/TR/2001/REC-SVG-20010904/DTD/svg10.dtd">
<svg version="1.0" xmlns="http://www.w3.org/2000/svg"
 width="565.000000pt" height="565.000000pt" viewBox="0 0 565.000000 565.000000"
 preserveAspectRatio="xMidYMid meet">
<metadata>
Created by potrace 1.14, written by Peter Selinger 2001-2017
</metadata>
<g transform="translate(0.000000,565.000000) scale(0.100000,-0.100000)"
fill="#000000" stroke="none">
<path d="M2741 5433 c-29 -96 -83 -271 -117 -378 -15 -44 -28 -90 -30 -102 -2
-12 -9 -35 -15 -50 -6 -16 -12 -35 -14 -43 -11 -47 -44 -150 -54 -167 -18 -34
-3 -33 73 8 41 21 75 39 78 39 3 0 2 -36 -1 -61 -1 -3 -23 -16 -50 -30 -38
-18 -50 -30 -53 -51 -3 -16 -2 -28 1 -28 3 0 5 -19 3 -42 -4 -58 -2 -98 4 -98
2 0 20 9 40 21 43 24 61 20 59 -13 -1 -18 -18 -32 -79 -63 -46 -24 -88 -55
-104 -75 -14 -19 -29 -37 -32 -40 -3 -3 -18 -22 -33 -42 l-27 -37 70 -42 c38
-23 70 -46 70 -51 0 -5 -19 -44 -41 -86 -71 -130 -102 -187 -104 -189 -1 -2
-2 70 -2 158 -1 89 -5 165 -10 169 -10 9 -102 60 -108 60 -3 0 -31 -39 -62
-87 -56 -85 -58 -91 -59 -158 -1 -38 -2 -73 -3 -76 -1 -4 -86 -109 -190 -235
-104 -126 -188 -230 -186 -232 1 -2 35 13 74 32 39 19 71 32 71 29 0 -3 6 -1
13 5 6 6 73 38 147 72 74 34 164 76 200 92 36 17 90 42 120 55 52 24 161 75
313 146 66 31 67 32 63 67 -3 19 -5 35 -6 35 -1 0 -3 11 -6 25 -2 14 -8 45
-14 70 -5 25 -12 56 -14 70 -2 14 -7 36 -10 50 -3 14 -8 36 -10 50 -3 14 -13
63 -22 108 -12 58 -14 86 -7 90 6 4 53 6 105 6 77 -1 102 -6 138 -25 25 -13
62 -31 83 -41 l37 -17 0 33 c0 30 -5 35 -77 74 l-76 42 -112 0 -111 0 1 98 1
97 107 1 c103 1 109 0 159 -30 48 -29 52 -34 51 -69 0 -39 6 -44 38 -27 15 8
19 21 19 60 l0 49 -77 43 c-77 42 -80 43 -180 45 -56 0 -106 4 -111 7 -6 4 -6
21 -1 46 5 22 11 64 14 93 3 30 8 65 10 78 3 13 8 44 10 69 5 41 31 227 40
290 2 14 7 45 10 70 4 25 9 60 11 78 8 53 -1 37 -25 -45z m-406 -1490 l0 -108
-61 -30 c-34 -16 -67 -31 -73 -32 -7 -2 -11 32 -11 107 l0 110 68 34 c37 19
69 33 72 31 3 -2 5 -52 5 -112z"/>
<path d="M3185 4180 c-88 -25 -105 -32 -105 -39 0 -4 -16 -15 -35 -24 -19 -9
-35 -21 -35 -26 0 -9 14 -36 110 -214 20 -37 39 -65 41 -63 2 3 4 73 3 156 -2
169 -5 161 71 206 46 27 34 28 -50 4z"/>
<path d="M3209 4045 c-1 -8 -2 -59 -2 -112 l-2 -98 65 -32 c36 -18 69 -31 75
-30 5 2 9 52 10 112 l0 110 -68 32 c-79 38 -77 38 -78 18z"/>
<path d="M2770 3836 c0 -26 5 -36 21 -41 11 -4 67 -28 122 -55 56 -26 127 -59
157 -73 30 -13 85 -39 123 -56 37 -17 96 -44 132 -61 36 -16 94 -43 130 -60
36 -16 94 -43 130 -60 165 -76 196 -90 200 -90 3 0 5 15 5 33 0 31 -4 35 -57
60 -86 39 -230 105 -300 138 -35 16 -91 42 -125 58 -126 58 -243 112 -422 195
-54 25 -102 46 -107 46 -5 0 -9 -15 -9 -34z"/>
<path d="M2669 3762 c-41 -20 -104 -50 -140 -66 -35 -16 -111 -52 -169 -79
-58 -27 -118 -55 -135 -62 -16 -7 -73 -33 -125 -58 -52 -24 -151 -69 -220
-101 l-126 -57 0 -610 c0 -420 3 -609 10 -609 11 0 396 125 431 140 19 8 124
43 135 45 3 0 103 34 224 74 l218 73 122 -41 c66 -23 128 -43 136 -45 8 -2
178 -59 377 -125 199 -67 366 -121 372 -121 6 0 11 15 11 33 0 32 -2 34 -62
52 -35 10 -69 22 -76 28 -7 5 -15 7 -19 4 -3 -4 -11 -3 -17 1 -6 5 -198 71
-428 147 l-416 138 -1 581 c0 754 1 696 -13 696 -7 -1 -47 -18 -89 -38z m-116
-376 c20 -39 21 -55 23 -379 1 -235 -2 -340 -10 -346 -14 -10 -105 -41 -123
-41 -10 0 -12 70 -10 353 2 338 3 354 24 399 41 89 55 91 96 14z m-268 -62
c44 -45 48 -72 49 -416 l2 -327 -68 -24 c-37 -13 -70 -22 -73 -19 -3 4 -5 155
-5 338 1 259 4 337 15 358 8 14 12 26 9 26 -3 0 5 18 17 40 25 45 31 47 54 24z
m-241 -103 c9 -10 25 -41 35 -67 15 -43 17 -84 15 -339 -1 -159 -2 -297 -3
-306 -1 -11 -18 -21 -48 -29 -27 -7 -52 -16 -58 -19 -36 -20 -37 -19 -33 327
3 312 5 340 23 377 11 22 23 42 28 43 4 2 7 10 7 18 0 19 14 18 34 -5z"/>
<path d="M3011 3421 c-42 -58 -44 -75 -45 -422 l-1 -337 60 -21 c99 -35 90
-66 89 316 0 186 -4 349 -8 363 -19 66 -53 130 -70 130 -2 0 -14 -13 -25 -29z"/>
<path d="M3265 3336 c-6 -6 -21 -33 -34 -59 -23 -48 -24 -55 -25 -364 -1 -198
3 -320 9 -328 13 -15 126 -57 133 -50 9 9 8 616 -1 669 -15 84 -60 157 -82
132z"/>
<path d="M3491 3211 c-41 -57 -43 -77 -45 -399 l-1 -312 54 -21 c105 -39 96
-68 96 281 1 346 -8 414 -61 467 -17 18 -20 17 -43 -16z"/>
<path d="M2745 2177 c-14 -30 -35 -51 -73 -73 -49 -30 -51 -32 -27 -38 32 -8
97 -72 114 -114 l14 -32 22 47 c22 48 89 103 125 103 8 0 -3 9 -25 19 -42 19
-99 76 -110 110 -9 30 -17 26 -40 -22z"/>
<path d="M770 1700 c-98 -28 -150 -92 -155 -190 -5 -93 28 -143 141 -216 46
-30 86 -54 89 -54 11 0 58 -46 65 -65 11 -31 -8 -72 -43 -88 -43 -21 -117 -14
-181 17 -29 14 -55 26 -58 26 -8 0 -3 -139 6 -147 13 -13 140 -40 180 -38 94
6 132 21 189 73 33 31 57 106 51 159 -10 91 -44 131 -179 213 -122 76 -147
123 -87 170 34 27 107 26 169 -2 26 -12 52 -22 57 -22 8 -1 11 62 7 127 -2 31
-182 57 -251 37z"/>
<path d="M4739 1700 c-91 -26 -142 -84 -154 -173 -14 -103 28 -166 170 -251
44 -27 92 -62 106 -78 24 -26 26 -33 16 -63 -21 -69 -131 -82 -231 -26 l-53
29 -1 -75 -1 -74 35 -15 c77 -32 201 -36 269 -9 78 31 128 108 128 195 0 94
-35 141 -171 225 -92 57 -132 94 -128 118 7 38 20 56 48 66 61 21 113 12 211
-37 4 -2 7 28 7 68 l0 71 -37 16 c-41 18 -170 26 -214 13z"/>
<path d="M1150 1635 l0 -65 58 -1 c31 -1 83 -1 114 0 53 1 81 -10 59 -24 -6
-3 -8 -12 -4 -21 3 -8 6 -139 7 -292 l1 -277 55 2 c30 0 60 2 65 2 7 1 11 103
10 304 l0 302 114 2 c62 1 115 4 117 6 2 2 6 21 9 43 4 21 8 49 10 62 l4 22
-310 0 -309 0 0 -65z"/>
<path d="M1899 1698 c-1 -2 -2 -169 -3 -373 l-2 -370 211 0 210 0 12 60 c6 33
9 62 7 65 -3 2 -71 5 -152 5 l-147 0 -3 102 -3 101 88 0 c141 0 128 -5 127 55
-1 28 -3 57 -3 63 -1 7 -33 11 -93 12 -51 0 -99 1 -105 1 -9 1 -13 23 -13 76
l0 75 128 -1 c180 -1 171 -2 167 20 -2 11 -7 40 -10 65 l-7 46 -204 0 c-112 0
-205 -1 -205 -2z"/>
<path d="M2460 1685 c0 -9 7 -32 16 -53 9 -20 17 -44 19 -52 2 -8 46 -146 99
-306 53 -160 96 -296 96 -302 0 -7 10 -13 23 -13 37 -3 129 -1 132 3 1 2 55
165 120 363 65 198 119 363 122 368 2 4 -29 7 -71 7 l-74 0 -13 -37 c-7 -21
-14 -42 -15 -48 -2 -5 -12 -44 -24 -85 -12 -41 -24 -82 -26 -90 -2 -8 -23 -82
-47 -164 l-44 -149 -16 49 c-9 27 -20 65 -25 84 -30 109 -124 425 -128 432 -3
4 -36 8 -75 8 -55 0 -69 -3 -69 -15z"/>
<path d="M3230 1330 c1 -203 4 -370 8 -371 28 -4 405 -3 411 1 7 4 16 42 25
105 3 20 -2 20 -151 20 -131 -1 -153 2 -154 15 -3 48 -4 167 -1 177 2 8 31 12
85 11 141 0 127 -7 127 66 l0 64 -105 -2 c-64 0 -105 3 -106 9 -1 14 -1 118 0
132 1 8 33 12 109 11 59 0 125 1 148 1 l41 1 -11 63 -11 62 -208 3 -207 2 0
-370z"/>
<path d="M3835 1673 c10 -16 24 -37 32 -48 10 -15 13 -89 13 -345 l0 -326 63
1 c34 0 64 3 67 7 3 4 5 104 5 222 0 119 2 216 6 216 3 0 12 -12 20 -27 8 -16
31 -57 52 -93 22 -36 43 -72 48 -80 73 -127 104 -178 117 -192 8 -10 11 -18 7
-18 -4 0 -1 -8 8 -17 14 -17 41 -20 125 -14 16 1 18 23 17 369 l0 367 -68 3
c-37 2 -67 -1 -66 -5 1 -4 1 -114 0 -243 l-1 -235 -55 95 c-30 52 -59 102 -64
110 -6 8 -44 75 -86 148 l-77 132 -90 0 -90 0 17 -27z"/>
<path d="M1000 728 c-11 -10 -20 -27 -20 -36 0 -23 29 -64 40 -57 5 3 16 -5
24 -17 19 -27 4 -41 -30 -28 -27 10 -33 5 -27 -21 4 -14 14 -19 43 -19 39 0
53 10 64 47 7 22 -4 37 -58 81 -22 18 -9 35 20 28 17 -5 26 -2 30 9 8 21 4 24
-34 29 -21 2 -38 -3 -52 -16z"/>
<path d="M2410 739 c-32 -12 -60 -57 -60 -99 0 -77 107 -120 163 -65 76 77 -2
200 -103 164z m82 -56 c9 -8 15 -22 13 -31 -2 -9 -4 -23 -4 -29 -1 -7 -14 -19
-30 -27 -27 -14 -31 -14 -55 5 -32 25 -34 61 -5 90 22 22 50 19 81 -8z"/>
<path d="M3331 729 c-72 -43 -49 -164 34 -177 36 -5 65 7 65 28 0 16 -5 19
-29 14 -44 -9 -71 10 -71 51 0 41 29 65 71 58 24 -3 29 -1 29 16 0 13 -7 21
-17 22 -10 0 -25 2 -35 4 -9 2 -30 -5 -47 -16z"/>
<path d="M4038 737 c-27 -6 -40 -17 -52 -42 -19 -39 -20 -56 -4 -89 16 -37 53
-58 96 -54 84 6 121 110 59 165 -29 26 -54 31 -99 20z m83 -64 c31 -58 -59
-116 -95 -61 -15 23 -14 64 1 79 27 24 76 15 94 -18z"/>
<path d="M4465 740 c-47 -12 -68 -38 -71 -84 -2 -38 2 -50 26 -76 65 -69 175
-16 164 79 -7 60 -61 97 -119 81z m71 -58 c13 -18 10 -58 -6 -77 -28 -34 -100
-5 -100 40 0 56 73 81 106 37z"/>
<path d="M4698 732 c-55 -28 -68 -99 -28 -152 16 -21 27 -25 75 -25 60 0 77
13 70 50 -2 11 -4 27 -4 35 -1 16 -60 23 -62 8 -5 -24 -3 -33 9 -33 24 0 16
-20 -10 -23 -17 -2 -33 4 -46 18 -40 43 -1 102 63 93 30 -4 35 -2 35 16 0 13
-7 21 -17 22 -10 0 -26 2 -35 4 -9 2 -32 -4 -50 -13z"/>
<path d="M624 648 c1 -80 3 -93 19 -96 19 -4 19 -4 19 88 0 98 -1 100 -20 100
-16 0 -18 -10 -18 -92z"/>
<path d="M749 648 c1 -51 4 -94 6 -96 1 -1 10 0 19 4 12 5 16 17 14 45 -3 51
7 59 29 20 10 -17 21 -31 26 -31 4 0 7 -6 7 -14 0 -15 37 -32 48 -22 3 4 6 47
7 97 1 85 0 90 -19 87 -18 -3 -21 -10 -21 -50 0 -25 -2 -49 -5 -52 -3 -2 -21
20 -40 50 -23 36 -42 54 -55 54 -19 0 -20 -5 -16 -92z"/>
<path d="M1150 725 c0 -8 5 -16 10 -16 6 -1 16 -2 23 -3 8 -1 12 -23 13 -69 1
-66 12 -95 32 -83 5 3 10 29 10 58 0 86 2 99 11 94 14 -9 38 3 38 19 0 12 -15
15 -69 15 -54 0 -68 -3 -68 -15z"/>
<path d="M1351 644 c0 -84 2 -95 17 -92 14 3 17 18 20 96 3 86 1 92 -17 92
-19 0 -20 -7 -20 -96z"/>
<path d="M1456 725 c-3 -8 -1 -16 4 -16 6 -1 15 -3 20 -4 6 -1 14 -3 18 -4 4
0 8 -29 7 -63 -1 -73 2 -88 21 -88 16 0 15 -5 17 85 2 65 4 70 24 69 13 -1 23
6 26 17 5 17 -1 19 -63 19 -51 0 -69 -4 -74 -15z"/>
<path d="M1657 728 c-2 -7 -3 -42 -1 -78 3 -73 23 -100 75 -100 50 0 66 27 68
114 2 71 1 76 -18 76 -19 0 -21 -6 -20 -67 1 -52 -2 -69 -16 -79 -38 -28 -53
-1 -51 89 1 47 -2 57 -15 57 -9 0 -19 -6 -22 -12z"/>
<path d="M1860 730 c0 -6 12 -16 28 -23 26 -12 27 -15 25 -82 -1 -63 1 -71 17
-72 17 -2 20 7 22 75 2 53 7 77 16 78 6 1 17 2 22 3 6 0 10 8 10 16 0 12 -14
15 -70 15 -42 0 -70 -4 -70 -10z"/>
<path d="M2066 658 c1 -46 2 -88 3 -95 2 -19 106 -12 106 7 0 9 -13 17 -34 20
-34 5 -55 39 -25 41 8 1 20 2 27 3 22 2 13 30 -13 36 -37 9 -32 35 7 35 17 0
34 3 38 7 16 16 -10 28 -59 28 l-52 0 2 -82z"/>
<path d="M2625 648 c0 -80 3 -93 18 -96 16 -3 23 23 18 66 -1 6 6 13 16 13 43
3 48 5 48 19 0 9 -12 17 -30 20 -37 6 -42 36 -6 32 24 -2 51 13 51 29 0 5 -26
9 -58 9 l-58 0 1 -92z"/>
<path d="M2910 720 c0 -12 6 -20 13 -19 31 4 34 -3 32 -71 -2 -72 3 -84 27
-75 9 4 13 25 11 75 -1 39 3 70 8 70 18 0 24 2 36 12 23 19 2 28 -63 28 -58 0
-64 -2 -64 -20z"/>
<path d="M3119 738 c-1 -2 -3 -44 -4 -94 l-1 -91 52 -1 c42 0 53 4 57 18 3 13
-2 19 -19 23 -14 2 -27 0 -30 -5 -8 -13 -24 1 -24 23 0 10 6 20 13 20 6 1 19
2 27 3 27 2 16 31 -13 34 -39 5 -33 36 8 38 44 2 45 3 39 19 -4 11 -21 15 -55
15 -27 0 -50 -1 -50 -2z"/>
<path d="M3504 648 c1 -87 2 -93 22 -94 18 -1 20 4 17 36 l-4 36 46 3 45 2 0
-40 c0 -34 3 -40 20 -38 18 1 20 8 20 94 0 86 -1 93 -20 93 -16 0 -20 -7 -20
-37 0 -36 -2 -38 -30 -37 -56 3 -59 4 -58 27 2 39 -2 47 -20 47 -16 0 -18 -10
-18 -92z"/>
<path d="M3747 728 c4 -7 8 -49 8 -93 0 -68 3 -80 18 -83 17 -4 20 7 19 70 -1
30 23 29 33 0 9 -27 53 -72 70 -72 12 0 15 16 15 95 0 85 -2 95 -18 95 -15 0
-18 -9 -19 -51 -1 -28 -4 -53 -6 -55 -2 -2 -20 21 -41 51 -28 43 -42 55 -62
55 -18 0 -23 -4 -17 -12z"/>
<path d="M4228 698 c-2 -24 -1 -66 0 -94 l4 -51 54 0 c46 0 54 2 54 18 0 15
-7 19 -35 19 l-35 0 0 75 c0 68 -2 75 -19 75 -16 0 -20 -8 -23 -42z"/>
<path d="M4860 734 c0 -3 14 -31 30 -61 17 -30 30 -69 30 -86 0 -26 4 -33 21
-34 17 -2 20 3 18 30 -2 18 0 37 3 42 20 34 58 105 58 109 0 3 -9 6 -21 6 -13
0 -25 -11 -34 -32 -21 -51 -27 -52 -47 -8 -13 27 -25 40 -38 40 -11 0 -20 -3
-20 -6z"/>
<path d="M2458 334 c-11 -11 4 -34 21 -34 14 0 17 -10 16 -57 -1 -50 -3 -58
-20 -58 -11 0 -21 -7 -23 -16 -3 -18 37 -27 91 -21 31 4 36 28 8 37 -15 5 -19
15 -19 58 0 95 1 93 -35 95 -18 1 -36 0 -39 -4z"/>
<path d="M2652 333 c-22 -9 -33 -40 -22 -67 5 -14 6 -26 1 -26 -16 0 -18 -48
-2 -68 23 -30 64 -35 90 -11 22 21 29 79 10 79 -6 0 -9 6 -6 13 3 6 8 20 12
29 13 33 -42 68 -83 51z m42 -39 c9 -23 8 -24 -14 -24 -19 0 -27 20 -13 33 11
11 20 8 27 -9z m9 -83 c6 -23 0 -31 -24 -31 -19 0 -29 17 -21 38 7 19 39 14
45 -7z"/>
<path d="M2796 333 c-12 -13 9 -33 35 -33 16 0 29 -2 29 -4 0 -2 -13 -35 -29
-75 l-30 -71 22 0 c19 0 27 13 52 78 41 105 40 107 -22 109 -28 0 -54 -1 -57
-4z"/>
<path d="M2977 316 c-18 -19 -22 -35 -21 -77 0 -44 5 -56 28 -76 30 -25 56
-24 89 5 13 11 17 31 17 78 0 54 -3 65 -22 78 -32 23 -66 20 -91 -8z m76 -36
c7 -26 -2 -82 -14 -95 -20 -20 -44 10 -44 56 -1 55 1 59 29 59 15 0 26 -7 29
-20z"/>
</g>
</svg>
